<?xml version="1.0" encoding="UTF-8"?>
<svg id="Layer_2" data-name="Layer 2" xmlns="http://www.w3.org/2000/svg" viewBox="0 0 78.75 12.05">
  <defs>
    <style>
      .cls-1 {
        fill: #ffcb05;
      }

      .cls-2 {
        fill: #090506;
      }
    </style>
  </defs>
  <g id="Components">
    <g id="_8bec13ec-6f04-43cd-8bc8-ebdba2557f7b_1" data-name="8bec13ec-6f04-43cd-8bc8-ebdba2557f7b@1">
      <polygon class="cls-2" points="1.91 1.71 1.91 3.36 5.01 3.36 5.01 4.95 1.91 4.95 1.91 8.06 0 8.06 0 .06 5.27 .06 5.27 1.71 1.91 1.71"/>
      <path class="cls-2" d="M11.1,4.63c.52-.16.93-.42,1.22-.79.29-.37.44-.82.44-1.37,0-.46-.09-.84-.26-1.15-.17-.31-.41-.56-.7-.75-.29-.19-.62-.32-.98-.4s-.74-.12-1.12-.12h-3.05v8h1.89v-3.18h.66l1.74,3.18h2.26l-2.09-3.42ZM10.72,3.01c-.09.13-.2.23-.33.29-.14.07-.29.12-.46.14-.17.03-.33.04-.49.04h-.92v-1.86h1.03c.14,0,.29.01.45.03.15.02.29.07.42.13.12.06.23.15.31.27.08.12.12.27.12.46,0,.2-.04.37-.13.5Z"/>
      <polygon class="cls-2" points="14.32 8.06 14.32 .06 19.7 .06 19.7 1.68 16.19 1.68 16.19 3.2 19.51 3.2 19.51 4.75 16.19 4.75 16.19 6.41 19.9 6.41 19.9 8.06 14.32 8.06"/>
      <polygon class="cls-2" points="21.47 .06 21.47 8.06 27.05 8.06 27.05 6.41 23.33 6.41 23.33 4.75 26.65 4.75 26.65 3.2 23.33 3.2 23.33 1.68 26.85 1.68 26.85 .06 21.47 .06"/>
      <polygon class="cls-2" points="2.76 12.05 2.78 9.92 2.76 9.92 1.98 12.05 1.48 12.05 .72 9.92 .71 9.92 .72 12.05 .04 12.05 .04 9.05 1.07 9.05 1.75 10.97 1.77 10.97 2.42 9.05 3.47 9.05 3.47 12.05 2.76 12.05"/>
      <path class="cls-2" d="M5.83,9.05h-.7l-1.26,3h.79l.22-.59h1.16l.23.59h.81l-1.24-3ZM5.08,10.88l.38-1.03.37,1.03h-.75Z"/>
      <path class="cls-2" d="M10.12,9.83c-.1-.19-.23-.35-.39-.46-.16-.11-.35-.2-.55-.24-.21-.05-.41-.07-.63-.07h-1.08v3h1.12c.21,0,.41-.03.61-.09.2-.06.38-.15.54-.27.16-.12.29-.28.39-.47.1-.19.15-.42.15-.68,0-.28-.05-.52-.15-.71ZM9.44,10.96c-.06.11-.13.2-.22.27-.09.07-.2.12-.32.15-.12.03-.24.04-.38.04h-.34v-1.75h.36c.12,0,.24.01.36.04.12.03.22.07.31.14.09.07.17.15.22.27.06.11.08.25.08.42s-.03.31-.08.42Z"/>
      <polygon class="cls-2" points="10.87 12.05 10.87 9.05 12.88 9.05 12.88 9.66 11.57 9.66 11.57 10.23 12.81 10.23 12.81 10.81 11.57 10.81 11.57 11.43 12.96 11.43 12.96 12.05 10.87 12.05"/>
      <rect class="cls-2" x="13.6" y="9.05" width=".73" height="3"/>
      <path class="cls-2" d="M16.75,10.76c.19-.06.35-.16.46-.3.11-.14.17-.31.17-.51,0-.17-.03-.32-.1-.43-.06-.12-.15-.21-.26-.28-.11-.07-.23-.12-.37-.15-.14-.03-.28-.04-.42-.04h-1.14v3h.71v-1.19h.25l.65,1.19h.85l-.78-1.28ZM16.6,10.15s-.07.08-.13.11-.11.04-.17.05-.12.01-.18.01h-.35v-.7h.39c.05,0,.11,0,.17.01.06,0,.11.02.16.05.05.02.09.06.12.1.03.04.05.1.05.17,0,.08-.02.14-.05.19Z"/>
      <path class="cls-2" d="M19.76,9.05h-.7l-1.26,3h.79l.22-.59h1.16l.23.59h.8l-1.24-3ZM19.02,10.88l.38-1.03.37,1.03h-.75Z"/>
    </g>
    <path id="_6161f6d4-253f-45a2-9dc4-2180e60929e2_1" data-name="6161f6d4-253f-45a2-9dc4-2180e60929e2@1" class="cls-1" d="M36.07,4.93c-.4.03-1.04.25-1.48.27-.07,0-.09-.04-.09-.11,0-.16.07-.55.13-1.02.12-.92.28-2.05.38-2.94-.22.28-1.91,3.72-2.57,4.94-.07.16-.28.45-.15.44.26,0,.9-.18,1.14-.21.07-.01.19-.02.21.04-.05.79-.61,3.92-.69,4.64,0,.03,0,.03.01.02.1-.16.18-.33.3-.57.67-1.28,1.53-2.93,2.2-4.21.32-.61.57-1.07.64-1.23.01-.04.01-.06-.03-.06h0Z"/>
    <g>
      <g>
        <path d="M44,4.85l-1.35-2.97v2.94h-.92V.07h1.07l1.49,3.29,1.49-3.29h1.07v4.75h-.92V1.88l-1.35,2.97h-.56Z"/>
        <path d="M47.66,2.44c0-1.38,1.09-2.44,2.5-2.44s2.51,1.06,2.51,2.44-1.1,2.44-2.51,2.44-2.5-1.06-2.5-2.44ZM51.66,2.44c0-.85-.63-1.51-1.5-1.51s-1.49.67-1.49,1.51.63,1.51,1.49,1.51,1.5-.67,1.5-1.51Z"/>
        <path d="M56.72,4.85l-2.31-3.2v3.16h-.92V.07h.9l2.17,3.01V.07h.92v4.79h-.77Z"/>
        <path d="M58.26,3.71l.77-.45c.12.35.46.7,1.01.7.49,0,.8-.2.8-.56,0-.32-.24-.5-.6-.58l-.46-.08c-.67-.13-1.25-.56-1.25-1.38,0-.63.53-1.36,1.62-1.36.75,0,1.28.39,1.53.9l-.78.49c-.09-.27-.36-.52-.75-.52s-.64.22-.64.48c0,.27.2.43.5.5l.48.1c.9.18,1.36.72,1.36,1.46s-.63,1.49-1.81,1.49c-1.06,0-1.58-.65-1.79-1.17Z"/>
        <path d="M63.55,4.82V.94h-1.42V.07h3.81v.88h-1.41v3.88h-.98Z"/>
        <path d="M66.56,4.82V.07h3.06v.86h-2.12v1.02h1.93v.85h-1.93v1.17h2.12v.86h-3.06Z"/>
        <path d="M74.22,4.82h-1.21l-1.47-1.7h-.01v1.7h-.95V.07h1.82c.92,0,1.61.65,1.61,1.51,0,.76-.52,1.43-1.38,1.53l1.6,1.71ZM71.52.92v1.34h.72c.43,0,.75-.25.75-.69s-.32-.66-.75-.66h-.72Z"/>
        <path d="M77.75,4.82l-.31-.89h-1.88l-.31.89h-1l1.72-4.75h1.11l1.67,4.75h-1ZM75.86,3.06h1.29l-.64-1.89-.64,1.89Z"/>
      </g>
      <g>
        <path d="M41.89,11.35v-4.75h1.61c.76,0,1.38.54,1.38,1.28,0,.53-.33.87-.56.99.39.15.73.54.73,1.15,0,.81-.63,1.32-1.46,1.32h-1.7ZM42.4,8.72h1.03c.52,0,.91-.27.91-.83,0-.5-.39-.81-.91-.81h-1.03v1.65ZM42.4,10.9h1.17c.6,0,.94-.39.94-.87s-.34-.86-.94-.86h-1.17v1.73Z"/>
        <path d="M45.73,8.98c0-1.36,1.07-2.44,2.44-2.44s2.44,1.09,2.44,2.44-1.07,2.44-2.44,2.44-2.44-1.09-2.44-2.44ZM50.06,8.98c0-1.08-.81-1.94-1.9-1.94s-1.89.86-1.89,1.94.79,1.94,1.89,1.94,1.9-.86,1.9-1.94Z"/>
        <path d="M51.28,8.98c0-1.36,1.07-2.44,2.44-2.44s2.44,1.09,2.44,2.44-1.07,2.44-2.44,2.44-2.44-1.09-2.44-2.44ZM55.62,8.98c0-1.08-.81-1.94-1.9-1.94s-1.89.86-1.89,1.94.79,1.94,1.89,1.94,1.9-.86,1.9-1.94Z"/>
        <path d="M60.66,11.35h-.69l-2.25-2.38v2.38h-.51v-4.75h.51v2.14l2.21-2.14h.69l-2.31,2.25,2.36,2.5Z"/>
        <path d="M61.13,10.38l.43-.25c.12.29.55.81,1.28.81.63,0,1.13-.34,1.13-.89,0-.43-.29-.75-.88-.86l-.48-.1c-.66-.13-1.19-.56-1.19-1.3,0-.61.49-1.26,1.45-1.26.66,0,1.19.37,1.4.9l-.42.26c-.12-.39-.56-.68-.98-.68-.61,0-.94.38-.94.78,0,.45.32.71.77.8l.48.1c.9.18,1.3.77,1.3,1.36,0,.64-.56,1.37-1.65,1.37-.98,0-1.53-.64-1.71-1.05Z"/>
      </g>
    </g>
  </g>
</svg>