<?xml version="1.0" encoding="UTF-8"?>
<svg id="Layer_2" data-name="Layer 2" xmlns="http://www.w3.org/2000/svg" viewBox="0 0 172.6 172.6">
  <defs>
    <style>
      .cls-1 {
        fill: none;
      }

      .cls-2 {
        fill: #fff;
      }

      .cls-3 {
        fill: #ef786e;
      }

      .cls-4 {
        fill: #073a3b;
      }
    </style>
  </defs>
  <g id="Camada_1" data-name="Camada 1">
    <g>
      <path class="cls-1" d="M157.24,106.99c-1.34-1.19-16.82-14.5-27.47-11.36-11.02,3.25-9.43,18.53-.98,21.77,7.92,3.04,16.06,3.36,19.75,4.09,3.68.73,9.77,1.71,12.94-.51,3.17-2.22,2.39-8.11-4.24-13.99Z"/>
      <path class="cls-1" d="M143.77,65.5c4.84-.75,12.01-1.49,13.69-7.93.66-2.52-.72-5.26-2.53-7.04-1.81-1.79-4.14-2.79-6.38-3.87-14.18-6.87-29.14-5.74-35.9-4.74-1.1.16-6.58.75-7.73,4.8-.93,3.26,2.11,9.52,3.61,11.35,3.37,4.09,8.07,6.86,13.06,7.9,7.35,1.55,14.93.66,22.17-.46Z"/>
      <path class="cls-4" d="M108.25,140.11c-2.94-8.21-4.87-16.7-7.1-25.12-2.86-10.82-6.13-21.54-9.92-32.07-3.44-9.56-7.04-18.31-11.45-27.4-3.9-8.05-8.23-15.89-13.15-23.37-1.15-1.75-2.34-3.48-3.56-5.19-.59-.83-1.2-1.66-1.81-2.47-.27-.37-.55-.73-.83-1.1-.03-.04-.3-.39-.33-.43-.06-.08-.12-.16-.18-.24-2.34-3-4.81-5.9-7.42-8.66-2.43-2.58-4.99-5.04-7.68-7.34-.65-.56-1.31-1.1-1.98-1.64-.24-.19-.49-.39-.73-.58.23.18-.58-.44-.72-.55-1.62-1.21-3.29-2.36-4.96-3.51-.22-.15-.45-.3-.67-.45H0v37.39c4.66-3.62,10.88-5.21,13.79-2.92,6.5,5.11,3.09,15.01.03,20.44C7.9,65.45,0,89.16,0,89.16v83.44s8.75,0,11.79,0c2.9-32.24,7.06-51.09,10.2-61.69,3.14-10.6,10.74-28.57,17.85-39.02,2.65-3.89,8.34-9.59,15.5-7.95s6.67,8.62,6.73,10.82c.23,9.72-3.93,19.29-8.55,27.85-10.56,19.59-24.78,50.82-25.3,69.99,0,0,22.16,0,28.69,0,2.62-17.61,2.94-23.84,10.45-37.57,2.88-5.27,8.78-12.14,16.17-9.43,7.39,2.71,7.25,12.81,2.52,21.55-4.73,8.74-6.75,13.57-10.3,25.46h51.32c-1.55-1.81-3.05-3.65-4.48-5.55-6.17-8.18-10.89-17.31-14.34-26.94Z"/>
      <path class="cls-3" d="M172.6,0h-45.61s-18.06,9.27-35.3,9.77c-10.25,0-8.77-8.9-8.11-9.77h-37.17c5.05,3.99,9.67,8.49,13.88,13.37,11.39,13.18,20.16,28.48,27.38,44.27,9.09,19.89,15.87,40.79,21.13,62,1.98,7.97,4.17,15.93,7.29,23.53.19.45.24.58.56,1.31.24.55.48,1.09.73,1.64.46,1.01.95,2.02,1.45,3.02,1.16,2.32,2.42,4.59,3.76,6.81,2.91,4.78,6.23,9.28,9.94,13.47.95,1.07,1.91,2.13,2.87,3.19h37.2V0ZM108.54,58.06c-1.5-1.82-4.54-8.09-3.61-11.35,1.15-4.05,6.63-4.64,7.73-4.8,6.77-1,21.72-2.13,35.9,4.74,2.24,1.08,4.57,2.09,6.38,3.87,1.81,1.79,3.19,4.52,2.53,7.04-1.69,6.44-8.85,7.18-13.69,7.93-7.24,1.12-14.82,2.01-22.17.46-4.99-1.05-9.69-3.81-13.06-7.9ZM161.47,120.98c-3.17,2.22-9.26,1.24-12.94.51-3.68-.73-11.83-1.05-19.75-4.09-8.45-3.24-10.04-18.52.98-21.77,10.65-3.14,26.13,10.17,27.47,11.36,6.63,5.88,7.4,11.77,4.24,13.99Z"/>
      <path class="cls-2" d="M42.11,4.52s-.09-.07-.17-.14c.06.05.12.09.17.14Z"/>
      <path class="cls-2" d="M60.11,22.97c.05.06.1.13.15.19-.13-.17-.16-.21-.15-.19Z"/>
    </g>
  </g>
</svg>